<svg xmlns="http://www.w3.org/2000/svg" viewBox="0 0 225.94 42.08"><defs><style>.cls-1{fill:#0b77c2;}</style></defs><title>wfp-moda-enketo</title><g id="Layer_2" data-name="Layer 2"><g id="Layer_1-2" data-name="Layer 1"><g id="Layer_2-2" data-name="Layer 2"><g id="Layer_1-2-2" data-name="Layer 1-2"><g id="Page-1"><g id="wfp-logo-standard-blue-en"><path id="Path" class="cls-1" d="M29.74,31.91H26.29L20.24,11.83c-.29-.89-.62-2-1-3.36A20.85,20.85,0,0,1,18.72,6a49.37,49.37,0,0,1-1.43,6L11.42,32H8L0,2H3.69L8.43,20.45A70.41,70.41,0,0,1,9.86,27.5a52.59,52.59,0,0,1,1.64-7.34L16.88,1.93h3.69l5.64,18.39a55,55,0,0,1,1.66,7.18,61.72,61.72,0,0,1,1.48-7.1L34.06,1.93h3.69Z"/><polygon class="cls-1" points="45.94 31.91 42.45 31.91 42.45 1.91 59.17 1.91 59.17 5 45.94 5 45.94 16 58.37 16 58.37 19.09 45.94 19.09 45.94 31.91"/><path id="Shape" class="cls-1" d="M83.14,10.66a8.4,8.4,0,0,1-3.11,7c-2.07,1.63-5,2.45-8.89,2.45H67.61v11.8H64.13v-30H71.9Q83.14,1.92,83.14,10.66ZM67.61,17.12h3.14q4.64,0,6.71-1.49a5.52,5.52,0,0,0,2.07-4.8,5.18,5.18,0,0,0-2-4.43c-1.33-1-3.36-1.46-6.07-1.46h-3.9Z"/><polygon class="cls-1" points="95.42 0 98.31 0 98.31 42.08 95.42 42.08 95.42 0"/><g id="MoDa"><path class="cls-1" d="M129.39,32,119.22,5.42h-.17c.2,2.11.29,4.61.29,7.51V32h-3.22V2h5.25l9.5,24.73H131L140.61,2h5.21V32h-3.49V12.68c0-2.21.1-4.61.29-7.22h-.17L132.2,32Z"/><path class="cls-1" d="M172.93,20.74q0,5.51-2.77,8.58a9.77,9.77,0,0,1-7.65,3.09A10.16,10.16,0,0,1,157.16,31a9.36,9.36,0,0,1-3.61-4.07,14.06,14.06,0,0,1-1.27-6.19c0-3.66.91-6.52,2.75-8.56a9.72,9.72,0,0,1,7.62-3.07,9.49,9.49,0,0,1,7.5,3.14Q172.93,15.39,172.93,20.74Zm-17.13,0q0,4.31,1.73,6.56a6.83,6.83,0,0,0,10.14,0c1.15-1.49,1.72-3.68,1.73-6.57s-.57-5.06-1.73-6.51A6.08,6.08,0,0,0,162.55,12a6,6,0,0,0-5,2.2q-1.76,2.19-1.75,6.54Z"/><path class="cls-1" d="M203.34,16.72q0,7.43-4,11.35T187.71,32h-8.3V2h9.19q7,0,10.87,3.87T203.34,16.72Zm-3.69.12q0-5.86-2.94-8.83T188,5h-5.1V29h4.24q6.24,0,9.37-3.07T199.65,16.84Z"/><path class="cls-1" d="M223.34,32l-.68-3.2h-.16a9.36,9.36,0,0,1-3.36,2.86,10.08,10.08,0,0,1-4.17.75,7.5,7.5,0,0,1-5.24-1.72,6.26,6.26,0,0,1-1.9-4.9q0-6.81,10.89-7.14l3.82-.12v-1.4a5.72,5.72,0,0,0-1.14-3.91A4.68,4.68,0,0,0,217.76,12a14.75,14.75,0,0,0-6.36,1.73l-1-2.61a16.56,16.56,0,0,1,7.6-2q4,0,6,1.79t1.94,5.72V32Zm-7.69-2.4a6.9,6.9,0,0,0,5-1.74A6.46,6.46,0,0,0,222.46,23V21l-3.41.14q-4.06.15-5.85,1.26a3.8,3.8,0,0,0-1.8,3.48,3.5,3.5,0,0,0,1.12,2.81A4.68,4.68,0,0,0,215.65,29.6Z"/></g></g></g></g></g></g></g></svg>